<svg viewBox="0 0 15 15" fill="none" xmlns="http://www.w3.org/2000/svg">
    <path d="M11.6718 15C11.5502 14.9997 11.4305 14.9684 11.323 14.9088L7.5 12.8013L3.67702 14.9088C3.55324 14.9768 3.41379 15.0072 3.27442 14.9965C3.13505 14.9859 3.00128 14.9346 2.88821 14.8485C2.77513 14.7624 2.68725 14.6449 2.63446 14.5093C2.58168 14.3736 2.56609 14.2252 2.58945 14.0807L3.31925 9.61726L0.226062 6.45603C0.125998 6.3536 0.0552421 6.22387 0.021783 6.08151C-0.0116761 5.93914 -0.00650536 5.78981 0.0367113 5.65036C0.079928 5.51091 0.159469 5.38691 0.266354 5.29236C0.373238 5.1978 0.503207 5.13646 0.641587 5.11526L4.91609 4.46414L6.82796 0.403292C6.89683 0.280493 6.9951 0.178684 7.11304 0.107947C7.23098 0.0372105 7.3645 0 7.50038 0C7.63625 0 7.76977 0.0372105 7.88771 0.107947C8.00565 0.178684 8.10392 0.280493 8.17279 0.403292L10.0839 4.46414L14.3584 5.11526C14.4968 5.13646 14.6268 5.1978 14.7336 5.29236C14.8405 5.38691 14.9201 5.51091 14.9633 5.65036C15.0065 5.78981 15.0117 5.93914 14.9782 6.08151C14.9448 6.22387 14.874 6.3536 14.7739 6.45603L11.6808 9.61726L12.4113 14.0807C12.4297 14.1936 12.4245 14.3092 12.3959 14.4197C12.3672 14.5302 12.316 14.6328 12.2456 14.7203C12.1753 14.8079 12.0875 14.8783 11.9885 14.9266C11.8895 14.9749 11.7817 14.9999 11.6725 15H11.6718Z"
          fill="currentColor"/>
</svg>
